G04 #@! TF.GenerationSoftware,KiCad,Pcbnew,8.0.6*
G04 #@! TF.CreationDate,2024-11-01T18:46:05+01:00*
G04 #@! TF.ProjectId,esp32s3board,65737033-3273-4336-926f-6172642e6b69,A*
G04 #@! TF.SameCoordinates,Original*
G04 #@! TF.FileFunction,Paste,Top*
G04 #@! TF.FilePolarity,Positive*
%FSLAX46Y46*%
G04 Gerber Fmt 4.6, Leading zero omitted, Abs format (unit mm)*
G04 Created by KiCad (PCBNEW 8.0.6) date 2024-11-01 18:46:05*
%MOMM*%
%LPD*%
G01*
G04 APERTURE LIST*
G04 Aperture macros list*
%AMRoundRect*
0 Rectangle with rounded corners*
0 $1 Rounding radius*
0 $2 $3 $4 $5 $6 $7 $8 $9 X,Y pos of 4 corners*
0 Add a 4 corners polygon primitive as box body*
4,1,4,$2,$3,$4,$5,$6,$7,$8,$9,$2,$3,0*
0 Add four circle primitives for the rounded corners*
1,1,$1+$1,$2,$3*
1,1,$1+$1,$4,$5*
1,1,$1+$1,$6,$7*
1,1,$1+$1,$8,$9*
0 Add four rect primitives between the rounded corners*
20,1,$1+$1,$2,$3,$4,$5,0*
20,1,$1+$1,$4,$5,$6,$7,0*
20,1,$1+$1,$6,$7,$8,$9,0*
20,1,$1+$1,$8,$9,$2,$3,0*%
%AMFreePoly0*
4,1,9,3.862500,-0.866500,0.737500,-0.866500,0.737500,-0.450000,-0.737500,-0.450000,-0.737500,0.450000,0.737500,0.450000,0.737500,0.866500,3.862500,0.866500,3.862500,-0.866500,3.862500,-0.866500,$1*%
G04 Aperture macros list end*
%ADD10RoundRect,0.140000X-0.170000X0.140000X-0.170000X-0.140000X0.170000X-0.140000X0.170000X0.140000X0*%
%ADD11RoundRect,0.135000X0.135000X0.185000X-0.135000X0.185000X-0.135000X-0.185000X0.135000X-0.185000X0*%
%ADD12RoundRect,0.147500X-0.147500X-0.172500X0.147500X-0.172500X0.147500X0.172500X-0.147500X0.172500X0*%
%ADD13RoundRect,0.135000X-0.185000X0.135000X-0.185000X-0.135000X0.185000X-0.135000X0.185000X0.135000X0*%
%ADD14RoundRect,0.250000X0.325000X0.650000X-0.325000X0.650000X-0.325000X-0.650000X0.325000X-0.650000X0*%
%ADD15RoundRect,0.140000X-0.140000X-0.170000X0.140000X-0.170000X0.140000X0.170000X-0.140000X0.170000X0*%
%ADD16RoundRect,0.150000X0.150000X0.425000X-0.150000X0.425000X-0.150000X-0.425000X0.150000X-0.425000X0*%
%ADD17RoundRect,0.075000X0.075000X0.500000X-0.075000X0.500000X-0.075000X-0.500000X0.075000X-0.500000X0*%
%ADD18O,1.000000X2.100000*%
%ADD19O,1.000000X1.800000*%
%ADD20RoundRect,0.150000X0.512500X0.150000X-0.512500X0.150000X-0.512500X-0.150000X0.512500X-0.150000X0*%
%ADD21RoundRect,0.140000X0.170000X-0.140000X0.170000X0.140000X-0.170000X0.140000X-0.170000X-0.140000X0*%
%ADD22R,2.750000X1.000000*%
%ADD23RoundRect,0.150000X0.150000X0.200000X-0.150000X0.200000X-0.150000X-0.200000X0.150000X-0.200000X0*%
%ADD24RoundRect,0.135000X0.185000X-0.135000X0.185000X0.135000X-0.185000X0.135000X-0.185000X-0.135000X0*%
%ADD25RoundRect,0.150000X-0.150000X-0.625000X0.150000X-0.625000X0.150000X0.625000X-0.150000X0.625000X0*%
%ADD26RoundRect,0.250000X-0.350000X-0.650000X0.350000X-0.650000X0.350000X0.650000X-0.350000X0.650000X0*%
%ADD27RoundRect,0.250000X-0.550000X1.500000X-0.550000X-1.500000X0.550000X-1.500000X0.550000X1.500000X0*%
%ADD28R,2.000000X1.500000*%
%ADD29R,2.000000X3.800000*%
%ADD30R,0.300000X0.800000*%
%ADD31RoundRect,0.140000X0.140000X0.170000X-0.140000X0.170000X-0.140000X-0.170000X0.140000X-0.170000X0*%
%ADD32R,1.300000X0.900000*%
%ADD33FreePoly0,0.000000*%
%ADD34R,0.400000X0.650000*%
%ADD35R,1.500000X0.900000*%
%ADD36R,0.900000X1.500000*%
%ADD37R,1.000000X1.000000*%
%ADD38RoundRect,0.218750X0.381250X-0.218750X0.381250X0.218750X-0.381250X0.218750X-0.381250X-0.218750X0*%
G04 APERTURE END LIST*
D10*
X94234000Y-39906000D03*
X94234000Y-40866000D03*
D11*
X97284000Y-64516000D03*
X96264000Y-64516000D03*
D12*
X96289000Y-63246000D03*
X97259000Y-63246000D03*
D13*
X90551000Y-43559000D03*
X90551000Y-44579000D03*
D14*
X93550000Y-72644000D03*
X90600000Y-72644000D03*
D15*
X82832000Y-73152000D03*
X83792000Y-73152000D03*
D13*
X89408000Y-43559000D03*
X89408000Y-44579000D03*
D16*
X91338000Y-41907000D03*
X90538000Y-41907000D03*
D17*
X89388000Y-41907000D03*
X88388000Y-41907000D03*
X87888000Y-41907000D03*
X86888000Y-41907000D03*
D16*
X85738000Y-41907000D03*
X84938000Y-41907000D03*
X84938000Y-41907000D03*
X85738000Y-41907000D03*
D17*
X86388000Y-41907000D03*
X87388000Y-41907000D03*
X88888000Y-41907000D03*
X89888000Y-41907000D03*
D16*
X90538000Y-41907000D03*
X91338000Y-41907000D03*
D18*
X92458000Y-41332000D03*
D19*
X92458000Y-37152000D03*
D18*
X83818000Y-41332000D03*
D19*
X83818000Y-37152000D03*
D20*
X87116500Y-45908000D03*
X87116500Y-44958000D03*
X87116500Y-44008000D03*
X84841500Y-44008000D03*
X84841500Y-44958000D03*
X84841500Y-45908000D03*
D21*
X94234000Y-36802000D03*
X94234000Y-35842000D03*
D22*
X115992000Y-80804000D03*
X121752000Y-80804000D03*
X115992000Y-84804000D03*
X121752000Y-84804000D03*
D11*
X91061000Y-64516000D03*
X90041000Y-64516000D03*
D23*
X82866000Y-82042000D03*
X84266000Y-82042000D03*
D21*
X96520000Y-69314000D03*
X96520000Y-68354000D03*
D24*
X90932000Y-75440000D03*
X90932000Y-74420000D03*
D25*
X90067000Y-86265000D03*
X91067000Y-86265000D03*
X92067000Y-86265000D03*
X93067000Y-86265000D03*
D26*
X88767000Y-90140000D03*
X94367000Y-90140000D03*
D27*
X95504000Y-77310000D03*
X95504000Y-82710000D03*
D28*
X89002000Y-79770000D03*
X89002000Y-77470000D03*
X89002000Y-75170000D03*
D29*
X82702000Y-77470000D03*
D30*
X97802000Y-71654000D03*
X98302000Y-71654000D03*
X98802000Y-71654000D03*
X99302000Y-71654000D03*
X99302000Y-68554000D03*
X98802000Y-68554000D03*
X98302000Y-68554000D03*
X97802000Y-68554000D03*
D31*
X98806000Y-73025000D03*
X97846000Y-73025000D03*
D13*
X83058000Y-43686000D03*
X83058000Y-44706000D03*
D32*
X91522000Y-67334000D03*
D33*
X91609500Y-68834000D03*
D32*
X91522000Y-70334000D03*
D13*
X96520000Y-66292000D03*
X96520000Y-67312000D03*
X116967000Y-55370000D03*
X116967000Y-56390000D03*
D22*
X115992000Y-71152000D03*
X121752000Y-71152000D03*
X115992000Y-75152000D03*
X121752000Y-75152000D03*
D12*
X83843000Y-63246000D03*
X84813000Y-63246000D03*
D20*
X86608500Y-71816000D03*
X86608500Y-70866000D03*
X86608500Y-69916000D03*
X84333500Y-69916000D03*
X84333500Y-70866000D03*
X84333500Y-71816000D03*
D24*
X94234000Y-42928000D03*
X94234000Y-41908000D03*
D34*
X102504000Y-68519000D03*
X101854000Y-68519000D03*
X101204000Y-68519000D03*
X101204000Y-70419000D03*
X101854000Y-70419000D03*
X102504000Y-70419000D03*
D14*
X84914000Y-67564000D03*
X81964000Y-67564000D03*
D12*
X90066000Y-63246000D03*
X91036000Y-63246000D03*
D11*
X84838000Y-64516000D03*
X83818000Y-64516000D03*
D13*
X94234000Y-37844000D03*
X94234000Y-38864000D03*
D24*
X104140000Y-56390000D03*
X104140000Y-55370000D03*
D35*
X102502000Y-35936000D03*
X102502000Y-37206000D03*
X102502000Y-38476000D03*
X102502000Y-39746000D03*
X102502000Y-41016000D03*
X102502000Y-42286000D03*
X102502000Y-43556000D03*
X102502000Y-44826000D03*
X102502000Y-46096000D03*
X102502000Y-47366000D03*
X102502000Y-48636000D03*
X102502000Y-49906000D03*
X102502000Y-51176000D03*
X102502000Y-52446000D03*
D36*
X104267000Y-53696000D03*
X105537000Y-53696000D03*
X106807000Y-53696000D03*
X108077000Y-53696000D03*
X109347000Y-53696000D03*
X110617000Y-53696000D03*
X111887000Y-53696000D03*
X113157000Y-53696000D03*
X114427000Y-53696000D03*
X115697000Y-53696000D03*
X116967000Y-53696000D03*
X118237000Y-53696000D03*
D35*
X120002000Y-52446000D03*
X120002000Y-51176000D03*
X120002000Y-49906000D03*
X120002000Y-48636000D03*
X120002000Y-47366000D03*
X120002000Y-46096000D03*
X120002000Y-44826000D03*
X120002000Y-43556000D03*
X120002000Y-42286000D03*
X120002000Y-41016000D03*
X120002000Y-39746000D03*
X120002000Y-38476000D03*
X120002000Y-37206000D03*
X120002000Y-35936000D03*
D37*
X108392000Y-39786000D03*
X108392000Y-41286000D03*
X108392000Y-41286000D03*
X108392000Y-42786000D03*
X109892000Y-39786000D03*
X109892000Y-39786000D03*
X109892000Y-41286000D03*
X109892000Y-42786000D03*
X111392000Y-39786000D03*
X111392000Y-41286000D03*
X111392000Y-42786000D03*
D13*
X115697000Y-55370000D03*
X115697000Y-56390000D03*
D24*
X88265000Y-70868000D03*
X88265000Y-69848000D03*
D38*
X82423000Y-71928500D03*
X82423000Y-69803500D03*
D14*
X89613000Y-67564000D03*
X86663000Y-67564000D03*
M02*
