G04 #@! TF.GenerationSoftware,KiCad,Pcbnew,8.0.6*
G04 #@! TF.CreationDate,2024-11-01T18:46:05+01:00*
G04 #@! TF.ProjectId,esp32s3board,65737033-3273-4336-926f-6172642e6b69,A*
G04 #@! TF.SameCoordinates,Original*
G04 #@! TF.FileFunction,Soldermask,Bot*
G04 #@! TF.FilePolarity,Negative*
%FSLAX46Y46*%
G04 Gerber Fmt 4.6, Leading zero omitted, Abs format (unit mm)*
G04 Created by KiCad (PCBNEW 8.0.6) date 2024-11-01 18:46:05*
%MOMM*%
%LPD*%
G01*
G04 APERTURE LIST*
%ADD10R,1.700000X1.700000*%
%ADD11O,1.700000X1.700000*%
%ADD12C,0.650000*%
%ADD13O,1.000000X2.100000*%
%ADD14O,1.000000X1.800000*%
%ADD15R,1.500000X1.000000*%
%ADD16C,3.200000*%
%ADD17R,1.600000X1.600000*%
%ADD18O,1.600000X1.600000*%
G04 APERTURE END LIST*
D10*
X96774000Y-38735000D03*
D11*
X99314000Y-38735000D03*
D10*
X105918000Y-87503000D03*
D11*
X103378000Y-87503000D03*
D12*
X91028000Y-40832000D03*
X85248000Y-40832000D03*
D13*
X92458000Y-41332000D03*
D14*
X92458000Y-37152000D03*
D13*
X83818000Y-41332000D03*
D14*
X83818000Y-37152000D03*
D10*
X109093000Y-56896000D03*
D11*
X106553000Y-56896000D03*
D10*
X122682000Y-56896000D03*
D11*
X120142000Y-56896000D03*
D15*
X80010000Y-43673000D03*
X80010000Y-44973000D03*
D16*
X80010000Y-37084000D03*
X128270000Y-38354000D03*
X113030000Y-89154000D03*
X85090000Y-89154000D03*
D17*
X80010000Y-51054000D03*
D18*
X80010000Y-53594000D03*
X80010000Y-56134000D03*
X80010000Y-58674000D03*
X80010000Y-61214000D03*
X80010000Y-63754000D03*
X80010000Y-66294000D03*
X80010000Y-68834000D03*
X80010000Y-73914000D03*
X80010000Y-76454000D03*
X80010000Y-78994000D03*
X80010000Y-81534000D03*
X80010000Y-84074000D03*
X80010000Y-86614000D03*
X128270000Y-86614000D03*
X128270000Y-84074000D03*
X128270000Y-81534000D03*
X128270000Y-78994000D03*
X128270000Y-76454000D03*
X128270000Y-73914000D03*
X128270000Y-71374000D03*
X128270000Y-68834000D03*
X128270000Y-64774000D03*
X128270000Y-62234000D03*
X128270000Y-59694000D03*
X128270000Y-57154000D03*
X128270000Y-54614000D03*
X128270000Y-52074000D03*
X128270000Y-49534000D03*
X128270000Y-46994000D03*
X128270000Y-44454000D03*
X128270000Y-41914000D03*
M02*
