M48
INCH,TZ
T1C0.0118
T2C0.0157
T3C0.0236
T4C0.0394
%
G90
G05
T1
X32150Y-17200
X32900Y-19200
X34300Y-32600
X34800Y-18100
X35400Y-17850
X36205Y-18205
X36427Y-18427
X36500Y-27700
X36550Y-31600
X36650Y-18650
X36700Y-26400
X36750Y-25050
X36877Y-18877
X37100Y-19100
X37250Y-26400
X37300Y-28750
X37650Y-19650
X37650Y-26000
X37800Y-27600
X38300Y-19150
X38300Y-26700
X38650Y-33900
X38700Y-24900
X38700Y-27600
X38923Y-27823
X39200Y-23100
X39200Y-28750
X39450Y-27400
X39750Y-16150
X40100Y-26650
X40100Y-28100
X41000Y-24950
X41350Y-18500
X41350Y-21800
X45100Y-26500
X45400Y-14750
X45550Y-22500
X46050Y-22500
X46300Y-20450
X46300Y-31200
X47900Y-27400
X48500Y-20450
T2
X34700Y-26250
X34700Y-26600
T4
X31500Y-20100
X31500Y-21100
X31500Y-22100
X31500Y-23100
X31500Y-24100
X31500Y-25100
X31500Y-26100
X31500Y-27100
X31500Y-29100
X31500Y-30100
X31500Y-31100
X31500Y-32100
X31500Y-33100
X31500Y-34100
X38100Y-15250
X39100Y-15250
X40700Y-34450
X41700Y-34450
X41950Y-22400
X42950Y-22400
X47300Y-22400
X48300Y-22400
X50500Y-16502
X50500Y-17502
X50500Y-18502
X50500Y-19502
X50500Y-20502
X50500Y-21502
X50500Y-22502
X50500Y-23502
X50500Y-24502
X50500Y-25502
X50500Y-27100
X50500Y-28100
X50500Y-29100
X50500Y-30100
X50500Y-31100
X50500Y-32100
X50500Y-33100
X50500Y-34100
T3
G00X32999Y-14784
M15
G01X32999Y-14469
M16
G05
G00X32999Y-16489
M15
G01X32999Y-16056
M16
G05
G00X36401Y-14784
M15
G01X36401Y-14469
M16
G05
G00X36401Y-16489
M15
G01X36401Y-16056
M16
G05
M30
